<?xml version="1.0" encoding="UTF-8"?><svg id="Calque_1" xmlns="http://www.w3.org/2000/svg" viewBox="0 0 390.35 378.67"><defs><style>.cls-1{fill:#c5df94;}.cls-1,.cls-2,.cls-3,.cls-4,.cls-5,.cls-6{stroke-width:0px;}.cls-7{opacity:.5;}.cls-2{fill:#fec1ac;}.cls-3{fill:#fff;}.cls-4{fill:#966245;}.cls-5{fill:#ffe7c9;}.cls-6{fill:#74584c;}</style></defs><g id="boy_brown_hair"><path class="cls-3" d="m333.14,318.33v45.3H52.54v-45.2c0-22.9,33.4-70.4,140.3-70.4,70.6,0,109.2,20.7,127.2,41.4,9.3,10.6,13.1,21.1,13.1,28.9Z"/><path class="cls-1" d="m333.14,318.33v45.3H63.34v-38c0-22.9,33.4-70.4,140.3-70.4,62.4,0,96.1,16.2,116.4,34.2,9.3,10.6,13.1,21.1,13.1,28.9Z"/><path class="cls-6" d="m335.04,363.63h-3.8v-45.2c0-22.3-33.8-68.4-138.4-68.4s-138.4,46.1-138.4,68.4v45.2h-3.8v-45.2c0-18.7,26.1-72.2,142.2-72.2s142.2,53.5,142.2,72.2v45.2h0Z"/><path class="cls-5" d="m228.84,225.43v54.4c0,5.1-2,9.8-5.4,12.4-8.1,6.3-52.4,6.2-61-.1-3.5-2.6-5.6-7.3-5.6-12.6v-54.2"/><path class="cls-6" d="m193.24,298.93c-13.5,0-27.2-1.7-31.9-5.2-4-2.9-6.4-8.2-6.4-14.1v-54.2c0-1.1.9-1.9,1.9-1.9,1.1,0,1.9.9,1.9,1.9v54.2c0,4.6,1.8,8.8,4.8,11,7.9,5.8,51.2,5.9,58.7.1,2.9-2.2,4.6-6.4,4.6-10.9v-54.4c0-1.1.9-1.9,1.9-1.9,1.1,0,1.9.9,1.9,1.9v54.4c0,5.7-2.3,10.9-6.1,13.9-4.4,3.5-17.8,5.2-31.3,5.2Z"/><path class="cls-5" d="m282.44,148.53c24.4-9.2,16.3,15.7,15,22.3-1.1,5.5-8.8,14.5-17.2,14.5"/><path class="cls-6" d="m280.14,187.13c-1.1,0-1.9-.9-1.9-1.9,0-1.1.9-1.9,1.9-1.9,7.6,0,14.5-8.4,15.4-12.9.1-.7.3-1.5.5-2.5,1.1-4.8,3.4-14.9-.4-18.2-2.2-1.9-6.5-1.7-12.6.6-1,.4-2.1-.1-2.5-1.1s.1-2.1,1.1-2.5c7.7-2.9,13.1-2.9,16.5.1,5.5,4.9,3.1,15.6,1.6,22-.2.9-.4,1.7-.5,2.3-1.2,6.5-9.8,16-19.1,16Z"/><path class="cls-5" d="m103.24,148.53c-24.4-9.2-16.3,15.7-15,22.3,1.1,5.5,8.8,14.5,17.2,14.5"/><path class="cls-6" d="m105.54,187.13c-9.3,0-17.9-9.6-19.1-16-.1-.6-.3-1.4-.5-2.3-1.5-6.4-4-17.1,1.6-22,3.4-3,8.8-3,16.5-.1,1,.4,1.5,1.5,1.1,2.5s-1.5,1.5-2.5,1.1c-6.1-2.3-10.4-2.5-12.6-.6-3.8,3.3-1.5,13.4-.4,18.2.2,1,.4,1.8.5,2.5.9,4.5,7.8,12.9,15.4,12.9,1.1,0,1.9.9,1.9,1.9,0,1.1-.9,1.9-1.9,1.9Z"/><path class="cls-3" d="m196.24,263.13c-1.2.1-2.3.1-3.5.1-70.6,0-91.1-65.2-91.1-127.7,0,0,41.2-96,90.7-96.2,1,0,2.1.1,3.2.3,30.1,4.5,78.1,72.8,88.2,100h.1c.1,0,7.1,120.7-87.6,123.5Z"/><path class="cls-5" d="m196.24,263.13c-67.5-2.2-87.3-66.1-87.3-127.5,0,0,39-90.9,86.7-96,30.1,4.5,78.1,72.8,88.2,100h.1s7,120.7-87.7,123.5Z"/><path class="cls-6" d="m192.74,265.23c-84,0-93-90.6-93-129.6,0-.3.1-.5.2-.8.1-.2,10.6-24.5,27-48.4,22.3-32.4,44.3-48.9,65.5-49h.1c30.6,0,81.8,71.9,92.9,101,.3.3.4.7.4,1.1,0,.7.9,16.3-2.4,36.6-3.1,18.8-10.5,45.2-28.4,64.2-15.6,16.5-36.5,24.9-62.3,24.9Zm-89.2-129.2c0,24.5,3.4,59.2,18.8,85.9,15.2,26.2,38.8,39.5,70.4,39.5,24.6,0,44.6-8,59.5-23.7,31.3-33.1,30-90.7,29.8-97.3v-.1c-10.1-27.2-60.8-99-89.5-99h-.1c-46.2.1-86.1,88.3-88.9,94.7Z"/><circle class="cls-6" cx="155.44" cy="165.33" r="7.2"/><circle class="cls-6" cx="230.24" cy="165.33" r="7.2"/><path class="cls-6" d="m203.64,198.23c-1.1,0-1.9-.9-1.9-1.9,0-2.9-4.1-5.3-8.9-5.3s-8.9,2.4-8.9,5.3c0,1.1-.9,1.9-1.9,1.9-1.1,0-1.9-.9-1.9-1.9,0-5.1,5.6-9.1,12.7-9.1s12.7,4,12.7,9.1c0,1-.9,1.9-1.9,1.9Z"/><path class="cls-6" d="m194.64,220.83c-8.6,0-17.6-1.5-24.1-4.1-1-.4-1.5-1.5-1.1-2.5s1.5-1.5,2.5-1.1c11.6,4.6,31.8,5.6,41.5.1.9-.5,2.1-.2,2.6.7s.2,2.1-.7,2.6c-5.2,3-12.8,4.3-20.7,4.3Z"/><g class="cls-7"><ellipse class="cls-2" cx="239.64" cy="205.63" rx="16.5" ry="16.6"/></g><g class="cls-7"><ellipse class="cls-2" cx="146.04" cy="205.63" rx="16.5" ry="16.6"/></g><path class="cls-3" d="m289.94,149.23c-.9,4.2-1.3,7.5-1.3,7.5,0,0-32.7-41.4-46.6-57.8l-.1-.1c-2.1-2.6-3.8-4.5-4.7-5.5-14,42.2-104.7,58.7-131.2,63.2-3.9.7-6.4,1.1-7,1.3l-1.7-18.2c-.1,0-6.8-7.3-6.8-11.6,0-52.7,34.6-95.5,107.1-95.4,1.3,0,2.4,0,3.7.1,0,0,0-.1.1,0,106.6,2.1,93.6,91.1,88.5,116.5Z"/><path class="cls-4" d="m288.64,156.73c-10.5-12.4-52.7-65.2-53.7-63.4-20.5,40.4-97,56.3-121.8,63.2-3.8,1.1-6.4,1.1-7,1.3l-.1-1.3-1.6-16.9c-.1,0-6.8-7.3-6.8-11.6,0-51.8,33.5-94.1,103.6-95.3,0,0,0-.1.1,0,106.7,2.1,92.4,98.6,87.3,124Z"/><path class="cls-6" d="m96.64,159.73c-.4,0-.8-.1-1.1-.3-.5-.3-.8-.8-.8-1.4l-1.7-17.4c-2.9-2.6-6.9-9.8-6.9-12.4,0-27.9,9.3-51.7,26.9-68.9,19.1-18.6,47.5-28.5,82.1-28.5h0c38.6,0,66.6,11.1,83,32.9,14.6,19.4,17.2,43.8,16.7,60.9-.5,18.4-4.3,32.1-4.5,32.6-.2.7-.7,1.2-1.4,1.3-.7.2-1.4-.1-1.9-.6-.4-.5-40.2-47.7-51.6-60.9-14.9,34.8-80.5,52.8-133.7,61.8-2.3.4-4.2.7-4.6.8-.1.1-.3.1-.5.1Zm-.5-21.5c.4.3.6.8.7,1.3l1.6,16.1c.7-.1,1.6-.3,2.8-.5,97.4-16.5,125.5-43,131.9-62.3.2-.6.8-1.1,1.4-1.3.7-.1,1.4.1,1.8.6,6.2,7.1,41.6,49.1,51.3,60.5,2.8-12.7,10.3-56.4-12.5-86.6-15.7-20.8-42.6-31.4-80-31.4h0c-33.6,0-61,9.5-79.4,27.4-16.9,16.4-25.8,39.3-25.8,66.1.1,2.8,4.9,8.8,6.2,10.1Z"/></g></svg>