<?xml version="1.0" encoding="UTF-8"?><svg id="Calque_1" xmlns="http://www.w3.org/2000/svg" viewBox="0 0 390.35 378.67"><defs><style>.cls-1{opacity:.5;}.cls-2{fill:#ac744a;}.cls-2,.cls-3,.cls-4,.cls-5,.cls-6,.cls-7{stroke-width:0px;}.cls-3{fill:#aee0e8;}.cls-4{fill:#fff;}.cls-5{fill:#f9c3d2;}.cls-6{fill:#ffe7c9;}.cls-7{fill:#74584c;}</style></defs><g id="girl_brown_hair"><path class="cls-4" d="m316.76,321.58v42.1H53.36v-42.1c0-21.3,31.3-65.5,131.7-65.5,66.3,0,102.5,19.3,119.4,38.5,8.8,9.9,12.3,19.7,12.3,27Z"/><path class="cls-5" d="m316.76,321.58v42.1H63.56v-35.4c0-21.3,31.3-65.5,131.7-65.5,58.6,0,90.2,15.1,109.3,31.8,8.7,9.9,12.2,19.7,12.2,27Z"/><path class="cls-7" d="m318.76,363.68h-3.8v-42.1c0-20.7-31.7-63.5-129.8-63.5s-129.8,42.8-129.8,63.5v42.1h-3.8v-42.1c0-17.5,24.5-67.4,133.6-67.4s133.6,49.9,133.6,67.4v42.1h0Z"/><path class="cls-6" d="m218.86,235.08v50.6c0,4.7-1.9,9.1-5,11.5-7.6,5.9-49.2,5.8-57.2-.1-3.3-2.4-5.3-6.8-5.3-11.7v-50.5"/><path class="cls-7" d="m185.46,303.58c-12.7,0-25.6-1.6-30-4.8-3.8-2.8-6-7.7-6-13.2v-50.5c0-1.1.9-1.9,1.9-1.9,1.1,0,1.9.9,1.9,1.9v50.5c0,4.3,1.7,8.1,4.5,10.2,7.4,5.4,48,5.4,55,.1,2.7-2,4.3-5.9,4.3-10v-50.7c0-1.1.9-1.9,1.9-1.9,1.1,0,1.9.9,1.9,1.9v50.5c0,5.4-2.2,10.3-5.8,13-4.3,3.3-16.9,4.9-29.6,4.9Z"/><path class="cls-4" d="m309.56,225.48c-8.9,20.2-46.8,25.9-64.2,26.9-9,.5-23.4.7-39,.8-37.4.1-82.5-.8-82.5-.8,0,0-53-5.7-63-26.9-17.8-37.6-2.4-192.7,123.7-192.7,1.8,0,3.4,0,5.1.1,123,4,136.9,154,119.9,192.6Z"/><path class="cls-2" d="m309.56,225.48c-8.9,20.2-46.8,25.9-64.2,26.9-9,.5-23.4.7-39,.8-34.9-.1-72.4-.8-72.4-.8,0,0-53-5.7-63-26.9-17.5-37.1-2.8-188.6,118.7-192.6,123,4,136.9,154,119.9,192.6Z"/><path class="cls-7" d="m201.06,255.08c-35.8,0-76.1-.8-76.7-.8-2.4-.2-54.4-6.1-64.7-28-11.6-24.5-9-90.7,21.4-138.7,23.5-37.1,59.5-56.8,104.1-56.8s80.8,19.1,104.4,55.4c14.1,21.7,23.8,49.7,27.1,79.1,2.8,24.5,1,47.9-4.7,60.9h0c-10.4,23.5-56.6,27.5-65.8,28-10.1.7-27,.9-45.1.9Zm-16-220.4c-43.2,0-78.1,19-100.9,55-19.4,30.6-37.7,100-21.1,135,9.4,20,61,25.8,61.5,25.8.7,0,91.3,1.8,121.3,0,8.8-.5,53.1-4.3,62.5-25.8,9.4-21.3,10.1-87-22.1-136.4-23.1-35.6-57.2-53.6-101.2-53.6Zm125.1,190.8h0Z"/><path class="cls-4" d="m270.66,164.98c0,29-11.8,55.4-28.4,74.4-15.5,17.8-35.2,29.2-53.3,30.7-1.3.1-2.6.1-3.9.1-42.8,0-83.3-47.2-83.3-105.3,0-2.3-.9-4.3-.8-6.6,0,0,56-1.9,79.3-10.8,54.2-20.7,55.6-47.7,55.6-47.7,0,5,1.1,9.8,2.2,14.1,5.5,24.2,21.5,39.6,32.6,51.1Z"/><path class="cls-6" d="m270.66,164.98c0,29-11.8,55.4-28.4,74.4-15.5,17.8-35.2,29.2-53.3,30.7-41.3-3-81.3-49-81.3-105.2,0-2.3.1-4.5.2-6.8,0,0,57.8-3.9,80.6-12.6,26.9-10.2,40.9-28.3,47.5-37.5,5.5,24.2,23.6,45.5,34.7,57Z"/><path class="cls-6" d="m100.96,158.38c-22.9-8.6-15.3,14.6-14.1,20.7,1,5.2,8.3,13.5,16.2,13.5"/><path class="cls-7" d="m103.06,194.48c-8.8,0-16.9-9-18.1-15-.1-.6-.3-1.3-.5-2.2-1.4-6-3.7-16,1.5-20.5,3.2-2.8,8.3-2.9,15.6-.1,1,.4,1.5,1.5,1.1,2.5s-1.5,1.5-2.5,1.1c-5.7-2.1-9.8-2.3-11.8-.6-3.5,3.1-1.3,12.4-.3,16.8.2.9.4,1.7.5,2.3.8,4.2,7.3,11.9,14.3,11.9,1.1,0,1.9.9,1.9,1.9.2,1.1-.6,1.9-1.7,1.9Z"/><circle class="cls-7" cx="151.36" cy="179.08" r="6.8"/><circle class="cls-7" cx="218.86" cy="179.08" r="6.8"/><path class="cls-7" d="m195.26,209.88c-1.1,0-1.9-.9-1.9-1.9,0-2.6-3.8-4.8-8.2-4.8s-8.2,2.2-8.2,4.8c0,1.1-.9,1.9-1.9,1.9-1.1,0-1.9-.9-1.9-1.9,0-4.8,5.3-8.6,12-8.6s12,3.8,12,8.6c0,1.1-.9,1.9-1.9,1.9Z"/><path class="cls-7" d="m186.76,230.88c-8.1,0-16.6-1.4-22.7-3.8-1-.4-1.5-1.5-1.1-2.5s1.5-1.5,2.5-1.1c10.9,4.2,29.8,5.2,38.9.1.9-.5,2.1-.2,2.6.7s.2,2.1-.7,2.6c-4.9,2.9-12,4-19.5,4Z"/><path class="cls-7" d="m101.96,160.18c-1.1,0-1.9-.9-1.9-1.9s.9-1.9,1.9-1.9c75.6,0,132-29.8,132-56.5,0-1.1.9-1.9,1.9-1.9s1.9.9,1.9,1.9c0,28.5-55.7,60.3-135.8,60.3Z"/><path class="cls-7" d="m187.36,272.18c-45.8,0-87.5-51.1-87.5-107.2,0-2.3.1-4.6.2-6.8.1-1.1.9-1.9,2-1.8,1.1.1,1.9,1,1.8,2-.1,2.2-.2,4.4-.2,6.6,0,48.8,35.8,103.4,83.6,103.4,44.8,0,83.2-56.2,83.6-102.6-5.1-4.7-37-35.1-37-66,0-1.1.9-1.9,1.9-1.9s1.9.9,1.9,1.9c0,31.1,36,63.4,36.4,63.7.4.4.6.9.6,1.4.2,59.5-47.7,107.3-87.3,107.3Z"/><path class="cls-7" d="m129.36,173.08c-.3,0-.5-.1-.8-.2l-27.4-12.9c-1-.4-1.4-1.6-.9-2.5.4-1,1.6-1.4,2.5-.9l27.4,12.9c1,.4,1.4,1.6.9,2.5-.3.7-1,1.1-1.7,1.1Z"/><g class="cls-1"><circle class="cls-3" cx="218.86" cy="180.18" r="22"/></g><path class="cls-7" d="m218.86,204.08c-13.2,0-23.9-10.7-23.9-23.9s10.7-23.9,23.9-23.9,23.9,10.7,23.9,23.9-10.7,23.9-23.9,23.9Zm0-43.9c-11.1,0-20.1,9-20.1,20.1s9,20.1,20.1,20.1,20.1-9,20.1-20.1c0-11.1-9-20.1-20.1-20.1Z"/><g class="cls-1"><circle class="cls-3" cx="151.36" cy="180.18" r="22"/></g><path class="cls-7" d="m151.36,204.08c-13.2,0-23.9-10.7-23.9-23.9s10.7-23.9,23.9-23.9,23.9,10.7,23.9,23.9c-.1,13.2-10.8,23.9-23.9,23.9Zm0-43.9c-11.1,0-20.1,9-20.1,20.1s9,20.1,20.1,20.1,20.1-9,20.1-20.1c-.1-11.1-9.1-20.1-20.1-20.1Z"/><path class="cls-7" d="m197.86,173.08h-25.6c-1.1,0-1.9-.9-1.9-1.9,0-1.1.9-1.9,1.9-1.9h25.6c1.1,0,1.9.9,1.9,1.9s-.8,1.9-1.9,1.9Z"/><path class="cls-7" d="m240.86,173.08c-.8,0-1.5-.5-1.8-1.2-.4-1,.1-2.1,1.1-2.5l27.2-10.8c1-.4,2.1.1,2.5,1.1s-.1,2.1-1.1,2.5l-27.2,10.8c-.2,0-.5.1-.7.1Z"/></g></svg>