<?xml version="1.0" encoding="UTF-8"?><svg id="Calque_1" xmlns="http://www.w3.org/2000/svg" viewBox="0 0 390.35 378.67"><defs><style>.cls-1{opacity:.5;}.cls-2{fill:#fec1ac;}.cls-2,.cls-3,.cls-4,.cls-5,.cls-6,.cls-7{stroke-width:0px;}.cls-3{fill:#fff;}.cls-4{fill:#63627f;}.cls-5{fill:#ffe7c9;}.cls-6{fill:#fdaf79;}.cls-7{fill:#74584c;}</style></defs><g id="boy_red_hair"><path class="cls-3" d="m336.28,316.92v46.2H49.38v-46.2c0-23.4,34.1-71.9,143.5-71.9,72.2,0,111.7,21.2,130.1,42.3,9.4,10.8,13.3,21.6,13.3,29.6Z"/><path class="cls-4" d="m336.28,316.92v46.2H60.38v-38.8c0-23.4,34.1-71.9,143.5-71.9,63.8,0,98.3,16.5,119,34.9,9.5,10.8,13.4,21.6,13.4,29.6Z"/><path class="cls-7" d="m338.18,363.22h-3.8v-46.3c0-22.8-34.6-70-141.5-70s-141.5,47.2-141.5,70v46.3h-3.8v-46.3c0-19.2,26.7-73.8,145.4-73.8s145.4,54.7,145.4,73.8v46.3h-.2Z"/><path class="cls-5" d="m229.58,221.82v55.7c0,5.2-2.1,10-5.5,12.7-8.3,6.5-53.5,6.4-62.3-.1-3.6-2.6-5.7-7.5-5.7-12.9v-55.4"/><path class="cls-7" d="m193.18,296.92c-13.8,0-27.8-1.8-32.6-5.3-4.1-3-6.5-8.4-6.5-14.4v-55.4c0-1.1.9-1.9,1.9-1.9,1.1,0,1.9.9,1.9,1.9v55.4c0,4.7,1.9,9.1,5,11.3,8.1,5.9,52.4,6,60,.1,2.9-2.3,4.8-6.6,4.8-11.2v-55.7c0-1.1.9-1.9,1.9-1.9,1.1,0,1.9.9,1.9,1.9v55.7c0,5.9-2.3,11.2-6.2,14.2-4.6,3.6-18.3,5.3-32.1,5.3Z"/><path class="cls-5" d="m284.38,143.22c25-9.4,16.6,16,15.3,22.8-1.1,5.7-9,14.8-17.6,14.8"/><path class="cls-7" d="m282.08,182.72c-1.1,0-1.9-.9-1.9-1.9,0-1.1.9-1.9,1.9-1.9,7.8,0,14.9-8.6,15.8-13.2.1-.7.3-1.5.6-2.5,1.1-4.9,3.5-15.2-.4-18.7-2.2-1.9-6.7-1.7-12.9.6-1,.4-2.1-.1-2.5-1.1s.1-2.1,1.1-2.5c7.9-3,13.4-2.9,16.8.1,5.7,4.9,3.1,15.9,1.6,22.4-.2.9-.4,1.8-.5,2.4-1.3,6.5-10.1,16.3-19.6,16.3Z"/><path class="cls-5" d="m101.18,143.22c-25-9.4-16.6,16-15.3,22.8,1.1,5.7,9,14.8,17.6,14.8"/><path class="cls-7" d="m103.48,182.72c-9.5,0-18.2-9.8-19.5-16.3-.1-.6-.3-1.5-.5-2.4-1.5-6.5-4-17.5,1.6-22.4,3.4-3,8.9-3,16.8-.1,1,.4,1.5,1.5,1.1,2.5s-1.5,1.5-2.5,1.1c-6.2-2.4-10.7-2.6-12.9-.6-3.9,3.4-1.5,13.7-.4,18.7.2,1,.4,1.9.6,2.5.9,4.7,8,13.2,15.8,13.2,1.1,0,1.9.9,1.9,1.9-.1,1-.9,1.9-2,1.9Z"/><path class="cls-3" d="m196.28,260.42c-1.2.1-2.4.1-3.5.1-72.2,0-93.1-66.7-93.1-130.6,0,0,42.2-76.1,92.8-76.3,1,0,2.1.1,3.2.3,30.8,4.6,79.9,52.4,90.2,80.2h.1s7.2,123.5-89.7,126.3Z"/><path class="cls-5" d="m196.28,260.42c-69.1-2.2-89.3-67.6-89.3-130.4,0,0,39.9-70.9,88.6-76.1,30.8,4.6,79.9,52.4,90.2,80.2h.1c.1,0,7.3,123.5-89.6,126.3Z"/><path class="cls-7" d="m192.78,262.52c-85.8,0-95.1-92.7-95.1-132.5,0-.3.1-.6.2-.9,1.7-3.1,43.3-77.1,94.5-77.3h.1c31.3,0,83.8,52.4,94.9,81.2.3.3.4.7.4,1.1,0,.7.9,16.6-2.5,37.4-3.1,19.2-10.7,46.2-29,65.6-15.8,16.8-37.2,25.4-63.5,25.4Zm-91.3-132c0,25.1,3.4,60.5,19.3,87.8,15.5,26.8,39.7,40.4,72,40.4,25.2,0,45.7-8.1,60.8-24.2,32-33.9,30.7-92.9,30.5-99.6v-.1c-5.2-13.9-20.4-33.6-38.8-50.3-20.2-18.4-39.5-28.9-52.8-28.9h-.1c-47,.1-87.4,68.8-90.9,74.9Z"/><circle class="cls-7" cx="154.58" cy="160.42" r="7.4"/><circle class="cls-7" cx="231.08" cy="160.42" r="7.4"/><path class="cls-7" d="m203.88,194.02c-1.1,0-1.9-.9-1.9-1.9,0-3-4.2-5.5-9.1-5.5s-9.1,2.5-9.1,5.5c0,1.1-.9,1.9-1.9,1.9-1.1,0-1.9-.9-1.9-1.9,0-5.2,5.7-9.3,12.9-9.3s12.9,4.1,12.9,9.3c0,1-.9,1.9-1.9,1.9Z"/><path class="cls-7" d="m194.68,217.12c-8.8,0-18-1.6-24.6-4.2-1-.4-1.5-1.5-1.1-2.5s1.5-1.5,2.5-1.1c11.9,4.7,32.6,5.7,42.5.1.9-.5,2.1-.2,2.6.7.5.9.2,2.1-.7,2.6-5.4,3.1-13.2,4.4-21.2,4.4Z"/><g class="cls-1"><circle class="cls-2" cx="240.68" cy="201.62" r="16.9"/></g><g class="cls-1"><circle class="cls-2" cx="144.98" cy="201.62" r="16.9"/></g><path class="cls-3" d="m288.38,137.82c.3,16-2.3,27.1-2.3,27.1-3.9-22.8-16.8-43.7-25.5-55.5-4.7-6.5-8.2-10.3-8.2-10.3l-3.2,11.2-4.3,15.2-9.7-22-4.3-9.6-8.2,11.6-6,8.6-9-15.3-5.7-9.7-7.5,13.7-7.1,12.9-3.3-10.7-2.8-9-11.1,12.1-7.4,8.1-5.3-11.8-4.5-10-8.5,13-8.2,12.4-2.8-11.8-1.9-8.4s-12.7,9.4-22.8,26.4c-4.9,8.2-9.1,18.1-11.1,29.6,0,0-8.3-66.7,33.3-100.5-.7.1-2.9.7-10.5,2.5,0,0,9.5-11.1,24.6-17.1,9-3.5,19.4-5.7,29-4.6,6,.7,11.5,2.7,16.1,6.5.6-.4,1.2-.8,1.8-1.1.7-.8,1.6-1.8,2.6-2.9,2.4-2.3,5.4-4.8,9-6.2,0,0-.6,2.3-1,5.6,1.1-.1,2.5-.3,4-.4,2.1-.1,4.4-.2,7.1-.1,1.2,0,2.4.1,3.7.1,13.4,1.2,32.2,7.1,52,27.4-.9-.4-4.9-1.8-10.4-1.5,1.5,1.4,2.8,2.8,4,4.2,20.3,22.8,25.1,50.4,25.4,70.3Z"/><path class="cls-6" d="m286.08,162.42c-6.8-27.9-25.5-53-25.5-53l-8.2-10.3-3.2,11.2-4.3,15.2-14-31.6-8.2,11.6-6,8.6-14.6-25-7.5,13.7-7.1,12.9-6.1-19.6-11.1,12.1-7.4,8.1-9.8-21.8-8.5,13-8.2,12.4s-2-4.8-2.8-11.8c-2.2-20.4-26.7,21.9-26.7,21.9,2.1-22.1,11.7-55.7,35.2-74.8-.7.1-2.9.7-10.5,2.5,0,0,9.5-11.1,24.6-17.1,5.6-2.2,11.9-5.8,17.9-4.6,8.2,1.7,6.6,1.5,12.8,4.2,2.4,1,1.3.7,3.3,2.3-4.9,2,6.2-5.8,6.8-6.1,1-1.1-1.5,1.4,0,0,2.1-2,1.9-2.9,5-4,0,0,1.1,2.6.7,5.6,0,.1,11-.2,11,0,1.1-.1,2.4-.3,3.8-.4,13.4,1.2,32.2,7.1,52,27.4-.9-.4-4.9-1.8-10.4-1.5,1.5,1.4,2.6,3,4,4.2,22.4,18.6,29.7,62.3,23,94.7Z"/><path class="cls-7" d="m286.08,166.92h0c-1,0-1.7-.7-1.9-1.6-4.9-28.4-24.2-54-30.9-62.2l-6.5,23c-.2.8-.9,1.3-1.7,1.4s-1.6-.4-1.9-1.1l-12.6-28.5-12.2,17.4c-.4.5-1,.9-1.6.8-.6,0-1.2-.4-1.6-.9l-13-22.1-13,23.7c-.4.7-1.1,1-1.9,1-.8-.1-1.4-.6-1.6-1.3l-5.1-16.5-16.3,17.8c-.4.5-1.1.7-1.7.6-.6-.1-1.2-.5-1.4-1.1l-8.3-18.6-14.8,22.5c-.4.6-1.2,1-1.9.8-.8-.1-1.4-.7-1.5-1.5l-4-17.2c-6.7,5.8-26.1,24.7-30.9,52.9-.2.9-1,1.6-1.9,1.6h0c-.9,0-1.7-.7-1.9-1.7-.1-.6-7.3-62,28.4-97.2-1,.2-2.1.5-3.3.8-.8.2-1.7-.1-2.1-.9-.4-.7-.4-1.6.2-2.2.4-.5,10-11.5,25.4-17.6,6.8-2.7,29.8-10.4,45.9,1.3.2-.1.3-.2.5-.3,2.7-3.2,6.9-7.3,12.2-9.3.7-.3,1.4-.1,2,.3.5.5.8,1.2.6,1.9,0,0-.3,1.2-.6,3,23.2-2.4,46,7.3,66.1,27.9.6.7.7,1.7.2,2.4s-1.5,1-2.3.7c0,0-1.9-.8-5-1.2.2.3.5.5.7.8h0c36.2,41.2,23.3,98.6,23.2,99.1-.3.7-1.1,1.3-2,1.3Zm-33.7-69.7c.5,0,1.1.2,1.4.6,1,1.1,23.2,25.9,31.9,56.9,1.9-17.8,2.2-56.3-23.8-86h0c-1.1-1.2-2.4-2.5-3.9-4-.6-.5-.7-1.3-.5-2.1.3-.7.9-1.2,1.7-1.2,1.6-.1,3.1,0,4.4.1-18.7-17.2-39.5-24.7-60.5-21.8-.6.1-1.2-.1-1.6-.5s-.6-1-.6-1.6c.1-.7.2-1.3.3-1.9-3.4,2.1-6.1,5-7.6,6.8-.2.2-.3.3-.6.5-.5.3-1.1.6-1.6,1-.7.5-1.6.5-2.3-.1-14.5-11.7-36.8-4.2-43.2-1.6-8.3,3.3-14.9,8.2-19,11.8,1.4-.3,2.5-.6,3.4-.7.1-.1.3-.2.5-.2v.1c2-.3,2.2.2,2.4,1.2.2.8-.2,1.6-.8,2.1-29.6,23.9-33.4,65.4-33.3,86.2,9.3-27.9,30.5-43.9,31.5-44.7.5-.4,1.2-.5,1.8-.3.6.2,1.1.7,1.2,1.4l3.6,15.9,14.3-21.7c.4-.6,1.1-.9,1.7-.9.7.1,1.3.5,1.6,1.1l8.6,19.1,16.6-18.1c.5-.5,1.2-.7,1.8-.6.7.2,1.2.6,1.4,1.3l4.7,15.4,12.4-22.6c.3-.6,1-1,1.6-1,.7.1,1.3.4,1.7.9l13.2,22.5,12.5-17.8c.4-.6,1.1-.9,1.8-.8.7.1,1.3.5,1.6,1.1l11.8,26.8,6-21.3c.2-.7.7-1.2,1.4-1.3h.5Z"/></g></svg>