<?xml version="1.0" encoding="UTF-8"?><svg id="Calque_1" xmlns="http://www.w3.org/2000/svg" viewBox="0 0 390.35 378.67"><defs><style>.cls-1{opacity:.5;}.cls-2{fill:#aee0e8;}.cls-2,.cls-3,.cls-4,.cls-5,.cls-6,.cls-7,.cls-8,.cls-9{stroke-width:0px;}.cls-3{fill:#fec1ac;}.cls-4,.cls-5{fill:#fff;}.cls-5,.cls-7{fill-rule:evenodd;}.cls-6{fill:#ffe7c9;}.cls-7{fill:#966245;}.cls-8{fill:#77bfbd;}.cls-9{fill:#74584c;}</style></defs><g id="boy_glasses"><path class="cls-4" d="m330.23,311.39v44.3H55.43v-44.3c0-22.4,32.7-68.9,137.4-68.9,69.2,0,107,20.3,124.6,40.5,9.1,10.5,12.8,20.8,12.8,28.4Z"/><path class="cls-8" d="m330.23,311.39v44.3H66.03v-37.2c0-22.4,32.7-68.9,137.4-68.9,61.1,0,94.1,15.9,114,33.5,9.1,10.4,12.8,20.7,12.8,28.3Z"/><path class="cls-9" d="m332.13,355.79h-3.8v-44.3c0-21.9-33.1-67-135.5-67s-135.5,45.1-135.5,66.9v44.3h-3.8v-44.3c0-18.4,25.6-70.8,139.3-70.8s139.3,52.4,139.3,70.8v44.4Z"/><path class="cls-6" d="m228.13,220.39v53.3c0,5-2,9.6-5.3,12.1-8,6.2-51.3,6.1-59.7-.1-3.4-2.5-5.5-7.2-5.5-12.3v-53.1"/><path class="cls-9" d="m193.23,292.39c-13.3,0-26.6-1.7-31.3-5.1-3.9-2.9-6.3-8.1-6.3-13.9v-53.1c0-1.1.9-1.9,1.9-1.9,1.1,0,1.9.9,1.9,1.9v53.1c0,4.5,1.8,8.6,4.7,10.8,7.7,5.7,50.1,5.7,57.4.1,2.8-2.2,4.5-6.2,4.5-10.6v-53.3c0-1.1.9-1.9,1.9-1.9,1.1,0,1.9.9,1.9,1.9v53.3c0,5.6-2.2,10.7-6,13.6-4.2,3.4-17.4,5.1-30.6,5.1Z"/><path class="cls-6" d="m280.63,145.09c23.9-9,15.9,15.3,14.7,21.8-1,5.4-8.6,14.2-16.9,14.2"/><path class="cls-9" d="m278.43,182.99c-1.1,0-1.9-.9-1.9-1.9,0-1.1.9-1.9,1.9-1.9,7.4,0,14.2-8.2,15-12.6.1-.7.3-1.5.5-2.4,1.1-4.7,3.4-14.6-.4-17.8-2.1-1.8-6.4-1.6-12.3.6-1,.4-2.1-.1-2.5-1.1s.1-2.1,1.1-2.5c7.6-2.8,12.8-2.8,16.2.1,5.5,4.8,3,15.3,1.6,21.6-.2.9-.4,1.7-.5,2.3-1.2,6.2-9.6,15.6-18.7,15.6Z"/><path class="cls-6" d="m105.13,145.09c-23.9-9-15.9,15.3-14.7,21.8,1,5.4,8.6,14.2,16.9,14.2"/><path class="cls-9" d="m107.33,182.99c-9.1,0-17.5-9.4-18.8-15.7-.1-.6-.3-1.4-.5-2.3-1.5-6.3-3.9-16.8,1.6-21.6,3.3-2.9,8.6-2.9,16.2-.1,1,.4,1.5,1.5,1.1,2.5s-1.5,1.5-2.5,1.1c-5.9-2.2-10.2-2.4-12.3-.6-3.7,3.3-1.5,13.1-.4,17.8.2,1,.4,1.8.5,2.4.9,4.4,7.6,12.6,15,12.6,1.1,0,1.9.9,1.9,1.9.1,1.1-.8,2-1.8,2Z"/><path class="cls-4" d="m196.13,257.29c-1.1.1-2.3.1-3.4.1-69.1,0-89.2-63.8-89.2-125.1,0,0,40.4-94.1,88.9-94.3,1,0,2,.1,3.1.3,29.5,4.4,76.5,71.3,86.4,98h.1c0,.1,6.9,118.3-85.9,121Z"/><path class="cls-6" d="m196.13,257.29c-66.2-2.1-85.5-64.8-85.5-124.9,0,0,38.2-89,84.9-94,29.5,4.4,76.5,71.3,86.4,98h.1s6.9,118.2-85.9,120.9Z"/><path class="cls-9" d="m192.83,259.39c-82.3,0-91.2-88.8-91.2-127,0-.3.1-.5.2-.8,1.7-3.9,41.5-95.2,90.6-95.4h.1c30,0,80.1,70.5,91,98.9.2.3.4.7.4,1.1,0,.6.9,16-2.4,35.9-3,18.4-10.3,44.3-27.8,62.9-15.2,16.2-35.7,24.4-60.9,24.4Zm-87.4-126.6c0,24,3.3,58,18.4,84.1,14.8,25.6,38,38.6,68.9,38.6,24.1,0,43.7-7.8,58.2-23.2,30.6-32.4,29.4-88.8,29.2-95.3h0c-9.9-26.6-59.5-97-87.7-97h-.1c-45.1.2-84.1,86.5-86.9,92.8Z"/><circle class="cls-9" cx="157.63" cy="161.49" r="7"/><circle class="cls-9" cx="228.13" cy="161.49" r="7"/><path class="cls-9" d="m203.43,193.79c-1.1,0-1.9-.9-1.9-1.9,0-2.8-4-5.2-8.7-5.2s-8.7,2.4-8.7,5.2c0,1.1-.9,1.9-1.9,1.9-1.1,0-1.9-.9-1.9-1.9,0-5,5.5-9,12.5-9s12.5,3.9,12.5,9c0,1-.9,1.9-1.9,1.9Z"/><path class="cls-9" d="m194.63,215.89c-8.5,0-17.3-1.5-23.6-4-1-.4-1.5-1.5-1.1-2.5s1.5-1.5,2.5-1.1c11.3,4.5,31.1,5.5,40.6.1.9-.5,2.1-.2,2.6.7.5.9.2,2.1-.7,2.6-5.1,3-12.6,4.2-20.3,4.2Z"/><g class="cls-1"><ellipse class="cls-3" cx="238.63" cy="200.99" rx="16.1" ry="16.2"/></g><g class="cls-1"><ellipse class="cls-3" cx="147.03" cy="200.99" rx="16.1" ry="16.2"/></g><path class="cls-5" d="m297.43,127.49c-3.2,3.2-5,7.8-6.4,13-1.5,5.4-2.6,11.3-4.2,16.7-6-7.2-7.7-25.9-9.2-30.7-23-7.6-38.7-38.8-44.3-45.5-2-.4-3.8-.8-5.6-1-41.3-5-52.1,48.7-103.3,52.1-.3.1-.6.1-.9.1-3.3.2-6.8.2-10.5-.1-1.6,2.3-2.7,7.3-4.8,12.8-1.6,4.2-3.7,8.8-6.9,12.3-3.3-13-8.8-28.5-13.5-29.9-7.1-74.1,56.9-104.8,104.1-102.3,20.6,1.1,38.1,8.6,44.9,21.5,34.7-4,68.5,32,60.6,81Z"/><path class="cls-7" d="m299.13,127.49c-6.5,2-7.8,16.1-10.7,24.4-.5,1.5-2.1,1.1-3-.1-4.9-6.7-5.6-23.3-6.2-25.2-23-7.6-45-45.7-49.9-46.4-33-4.7-64.5,54.3-103.3,52.1-.3.1-.6,0-.8,0,0,0,0,.1-.1.1-3.1,1.7-10.5-.1-10.5-.1-1.1-4-8.2,16.8-9.6,12.8-3-8.9-7.7-16.8-10.9-17.8-6.6-68.7,53.8-100.1,99.3-102.3,20.6,1.1,38.1,8.6,44.9,21.5,34.9-4,68.7,32,60.8,81Z"/><path class="cls-9" d="m101.23,159.19c-.2,0-.3,0-.5-.1-.7-.2-1.2-.7-1.4-1.4-4.5-17.7-9.6-27.8-12.3-28.6-.7-.2-1.3-.9-1.3-1.6-6.8-71.7,50.3-94.4,67.9-99.7,35.8-10.7,72.3-3.4,84,16.6,15.6-1.4,31.3,5,43.3,17.5,15.7,16.5,22.3,40.5,18.3,65.9-.1.4-.3.8-.5,1.1-4.2,4.1-5.9,11.6-7.7,19.6-.7,3.1-1.5,6.3-2.4,9.4-.2.7-.8,1.2-1.4,1.3-.7.1-1.4-.1-1.9-.7-4.6-5.6-6.7-16.8-8.3-25-.4-2.2-.8-4.2-1.1-5.5-18.3-6.7-32.1-27.7-39.5-39.1-1.8-2.7-3.2-4.8-4.2-6.2-22.5-5-35.7,7.3-51,21.5-16.1,15-34.3,31.9-67.2,30-.7,1.4-1.4,3.5-2.2,5.9-1.9,5.8-4.3,13.1-9.2,18.4-.3.5-.8.7-1.4.7Zm-11.7-33.1c5.4,3.5,10.1,17.9,12.6,27,2.9-4.4,4.6-9.7,6.1-14.1,1.1-3.4,2-6.1,3.2-7.8.4-.5,1-.9,1.7-.8,31.9,2.3,49-13.6,65.5-28.9,15.6-14.4,30.2-28.1,55.1-22.3.4.1.8.3,1,.6,1.2,1.5,2.8,3.9,4.9,7.1,7.3,11.2,20.9,32,38.5,37.9.6.2,1,.6,1.2,1.2.5,1.5.9,3.9,1.5,6.9,1.1,5.9,2.6,14.2,5.3,19.7.4-1.7.8-3.3,1.2-5,1.9-8.2,3.7-16,8.3-21,3.7-24-2.6-46.6-17.3-62-11.4-12-26.5-17.9-41.4-16.2-.8.1-1.5-.3-1.9-1-10-19-46-26.1-80.2-15.9-16.9,5-71.2,26.6-65.3,94.6Z"/><path class="cls-9" d="m135.83,164.49c-.3,0-.5-.1-.8-.2l-28.6-13.4c-1-.4-1.4-1.6-.9-2.5.4-1,1.6-1.4,2.5-.9l28.6,13.4c1,.4,1.4,1.6.9,2.5-.3.7-1,1.1-1.7,1.1Z"/><g class="cls-1"><circle class="cls-2" cx="229.13" cy="172.09" r="22.9"/></g><path class="cls-9" d="m229.13,196.89c-13.7,0-24.8-11.1-24.8-24.8s11.1-24.8,24.8-24.8,24.8,11.1,24.8,24.8c.1,13.7-11.1,24.8-24.8,24.8Zm0-45.8c-11.6,0-21,9.4-21,21s9.4,21,21,21,21-9.4,21-21c.1-11.6-9.4-21-21-21Z"/><g class="cls-1"><circle class="cls-2" cx="158.73" cy="172.09" r="22.9"/></g><path class="cls-9" d="m158.73,196.89c-13.7,0-24.8-11.1-24.8-24.8s11.1-24.8,24.8-24.8,24.8,11.1,24.8,24.8c0,13.7-11.1,24.8-24.8,24.8Zm0-45.8c-11.6,0-21,9.4-21,21s9.4,21,21,21,21-9.4,21-21-9.4-21-21-21Z"/><path class="cls-9" d="m207.33,164.49h-26.7c-1.1,0-1.9-.9-1.9-1.9s.9-1.9,1.9-1.9h26.7c1.1,0,1.9.9,1.9,1.9s-.9,1.9-1.9,1.9Z"/><path class="cls-9" d="m252.13,164.49c-.8,0-1.5-.5-1.8-1.2-.4-1,.1-2.1,1.1-2.5l29.8-11.8c1-.4,2.1.1,2.5,1.1s-.1,2.1-1.1,2.5l-29.8,11.8c-.3.1-.5.1-.7.1Z"/></g></svg>