<?xml version="1.0" encoding="UTF-8"?><svg id="Calque_1" xmlns="http://www.w3.org/2000/svg" viewBox="0 0 390.35 378.67"><defs><style>.cls-1{fill:#d8d6ec;}.cls-1,.cls-2,.cls-3,.cls-4,.cls-5,.cls-6,.cls-7{stroke-width:0px;}.cls-8{opacity:.5;}.cls-2{fill:#aee0e8;}.cls-3{fill:#fec1ac;}.cls-4{fill:#fff;}.cls-5{fill:#ffe7c9;}.cls-6{fill:#fdaf79;}.cls-7{fill:#74584c;}</style></defs><g id="girl_red_hair"><path class="cls-4" d="m193.82,322.73c-1.9.1-3.9.1-5.9.1-111.8.1-111.8-158.9-111.8-208.4S127.02,24.83,189.72,24.83c1.5,0,3,0,4.5.1.5-.1,1-.1,1.4,0,59.9,2.4,107.5,41.5,107.5,89.5s5.5,203.3-109.3,208.3Z"/><path class="cls-6" d="m193.82,322.73c-107.4-4.1-107.3-159.5-107.3-208.3S134.32,27.33,194.22,24.93c.5-.1,1-.1,1.4,0,59.9,2.4,107.5,41.5,107.5,89.5s5.5,203.3-109.3,208.3Z"/><path class="cls-7" d="m187.92,324.83c-48.5,0-82-29.2-99.6-86.9-14-46.1-14-98.3-14-123.3,0-50.6,51.8-91.7,115.4-91.7s115.3,41.1,115.3,91.5v6.5c.2,42.3.6,130.2-44.9,175.9-18.5,18.6-42.8,28-72.2,28Zm1.8-298.1c-61.6,0-111.6,39.4-111.6,87.7,0,25,0,76.8,13.9,122.4,17,55.8,49.3,84.1,95.9,84.1,28.4,0,51.8-9,69.5-26.8,44.3-44.5,44-131.4,43.8-173.2v-6.5c-.1-48.3-50.1-87.7-111.5-87.7Z"/><path class="cls-4" d="m324.12,312.33v43.4H55.22v-43.3c0-21.9,32-67.4,134.5-67.4,67.7,0,104.7,19.9,121.9,39.7,8.8,10,12.5,20.1,12.5,27.6Z"/><path class="cls-1" d="m324.12,312.33v43.4H65.52v-36.4c0-21.9,32-67.4,134.5-67.4,59.8,0,92.1,15.5,111.6,32.8,8.8,10,12.5,20.1,12.5,27.6Z"/><path class="cls-7" d="m326.02,355.73h-3.8v-43.4c0-21.4-32.4-65.5-132.5-65.5s-132.6,44.2-132.6,65.5v43.4h-3.8v-43.4c0-18,25.1-69.3,136.4-69.3s136.4,51.3,136.4,69.3v43.4h-.1Z"/><path class="cls-5" d="m224.12,223.23v52.2c0,4.9-1.9,9.4-5.2,11.9-7.8,6.1-50.2,6-58.4-.1-3.3-2.5-5.4-7-5.4-12v-52"/><path class="cls-7" d="m190.02,293.73c-13,0-26.1-1.7-30.6-5-3.9-2.8-6.2-7.9-6.2-13.6v-52c0-1.1.9-1.9,1.9-1.9,1.1,0,1.9.9,1.9,1.9v52c0,4.4,1.8,8.4,4.6,10.5,7.6,5.5,49,5.6,56.1.1,2.7-2.1,4.4-6.1,4.4-10.4v-52.2c0-1.1.9-1.9,1.9-1.9,1.1,0,1.9.9,1.9,1.9v52.2c0,5.5-2.2,10.5-5.9,13.4-4.1,3.4-17,5-30,5Z"/><path class="cls-5" d="m275.52,149.53c23.4-8.8,15.6,15,14.4,21.3-1,5.3-8.4,13.9-16.5,13.9"/><path class="cls-7" d="m273.32,186.63c-1.1,0-1.9-.9-1.9-1.9,0-1.1.9-1.9,1.9-1.9,7.2,0,13.8-8,14.6-12.3.1-.6.3-1.5.5-2.4,1.1-4.6,3.3-14.2-.3-17.4-2.1-1.8-6.2-1.6-12,.6-1,.4-2.1-.1-2.5-1.1s.1-2.1,1.1-2.5c7.4-2.8,12.6-2.8,15.9.1,5.4,4.7,3,15,1.5,21.1-.2.9-.4,1.6-.5,2.2-1.1,6.3-9.3,15.5-18.3,15.5Z"/><path class="cls-5" d="m103.82,149.53c-23.4-8.8-15.6,15-14.4,21.3,1,5.3,8.4,13.9,16.5,13.9"/><path class="cls-7" d="m105.92,186.63c-9,0-17.2-9.2-18.4-15.4-.1-.6-.3-1.4-.5-2.2-1.4-6.1-3.8-16.4,1.5-21.1,3.3-2.9,8.5-2.9,15.9-.1,1,.4,1.5,1.5,1.1,2.5s-1.5,1.5-2.5,1.1c-5.8-2.2-10-2.4-12-.6-3.6,3.2-1.4,12.8-.3,17.4.2.9.4,1.8.5,2.4.8,4.3,7.4,12.3,14.6,12.3,1.1,0,1.9.9,1.9,1.9.1,1-.7,1.8-1.8,1.8Z"/><path class="cls-4" d="m277.12,132.13c.1,23.7-4,124.9-84.2,127.2-.1.1-.2.1-.3,0-1,.1-2,.1-3,.1-67.6,0-87.1-66.3-87.1-126.1,0,0,38,0,84.7-13.7,1-.3,49.9-18.1,52.1-45.9,0,4.8.4,9.7,1.3,14.6,3.9,22,16.3,43.4,36.5,45.2v-1.4s-.1-4.9-.1-4.9c-.1,0,.1,1.8.1,4.9Z"/><path class="cls-5" d="m277.12,132.13c.1,23.7-4,124.9-84.2,127.2-.1.1-.2.1-.3,0-64.5-2.4-83.2-67.3-83.2-126,0,0,38,0,84.7-13.7.8-.2,30.8-18.7,44.2-38,3-4.5,1.2,48.1,38.8,50.5q-.1,0,0,0Z"/><path class="cls-2" d="m120.62,71.73c14.6-16.6,37.7-25.1,68.6-25.1,33.2,0,57.3,7.5,71.4,22.4,10.4,11,14,24.1,15.1,35.6-2.1-6.2-5.4-12.3-10.7-17.9-14.3-15.2-39.8-22.9-75.7-22.9s-60,8.8-74.9,26.3c-4.4,5.2-7.5,10.6-9.6,15.9,1.9-10.7,6.3-23.4,15.8-34.3Z"/><path class="cls-7" d="m101.82,131.63c-.9,0-1.8-.7-1.9-1.7-.2-1.4-4.3-35.3,17.9-60.6,15.3-17.5,39.4-26.3,71.3-26.3,34.3,0,59.2,7.9,74,23.6,18.1,19,16.8,44.9,16.2,57.3-.1,1.7-.2,3.2-.2,4.4,0,1.1-.8,1.8-1.9,1.9-1.1,0-1.9-.9-1.9-1.9,0-1.2.1-2.8.2-4.6.7-12.8,1.9-36.6-15.1-54.4-14.1-14.8-38.1-22.4-71.3-22.4-30.8,0-53.9,8.4-68.5,25-21.1,24-17.1,57.3-17,57.7.1,1-.6,2-1.6,2.1,0-.1-.1-.1-.2-.1Z"/><path class="cls-7" d="m189.62,261.43c-80.4,0-89.2-86.7-89.2-124.2-.4-2.4-3.4-26.9,13.9-47.3,14.9-17.5,40.1-26.3,75-26.3s61.5,7.7,75.8,23c15.7,16.6,14.5,38.2,13.8,49.8-.1,1.5-.2,2.8-.2,4,.1.2.1.3.1.5,0,.6.9,15.6-2.3,35.1-3,18-10.1,43.4-27.2,61.6-15,15.8-35.1,23.8-59.7,23.8Zm-.4-193.9c-33.7,0-58,8.4-72.1,25-16.7,19.6-13.1,44.1-13,44.3v.3c0,23.5,3.1,56.9,18,82.7,14.5,25.1,37.2,37.8,67.4,37.8,23.6,0,42.7-7.6,56.9-22.7,29.9-31.7,28.8-86.9,28.5-93.2-.1-.2-.1-.5-.1-.7,0-1.3.1-2.9.2-4.8.7-11.8,1.8-31.5-12.8-47-13.5-14.4-38.1-21.7-73-21.7Z"/><path class="cls-7" d="m200.02,197.23c-1.1,0-1.9-.9-1.9-1.9,0-2.7-3.9-5-8.4-5s-8.4,2.3-8.4,5c0,1.1-.9,1.9-1.9,1.9-1.1,0-1.9-.9-1.9-1.9,0-5,5.4-8.8,12.3-8.8s12.3,3.9,12.3,8.8c-.2,1.1-1.1,1.9-2.1,1.9Z"/><path class="cls-7" d="m191.42,218.93c-8.3,0-16.9-1.5-23.1-3.9-1-.4-1.5-1.5-1.1-2.5s1.5-1.5,2.5-1.1c11.1,4.4,30.4,5.3,39.7.1.9-.5,2.1-.2,2.6.7s.2,2.1-.7,2.6c-5.1,2.9-12.4,4.1-19.9,4.1Z"/><g class="cls-8"><ellipse class="cls-3" cx="234.42" cy="204.33" rx="15.8" ry="15.9"/></g><g class="cls-8"><ellipse class="cls-3" cx="144.82" cy="204.33" rx="15.8" ry="15.9"/></g><path class="cls-7" d="m102.52,135.33c-1.1,0-1.9-.9-1.9-1.9s.9-1.9,1.9-1.9c77.2,0,134.8-30.5,134.8-57.7,0-1.1.9-1.9,1.9-1.9,1.1,0,1.9.9,1.9,1.9,0,29-56.9,61.5-138.6,61.5Z"/><path class="cls-7" d="m102.32,142.13c-1.1,0-1.9-.9-1.9-1.9,0-2.3.1-4.7.2-7,.1-1.1.9-1.9,2-1.8,1.1.1,1.9,1,1.8,2-.1,2.2-.2,4.5-.2,6.8,0,1.1-.9,1.9-1.9,1.9Z"/><path class="cls-7" d="m277.02,142.13c-1.1,0-1.9-.9-1.9-1.9v-4.9c-21-1.6-37.8-28.6-37.8-61.6,0-1.1.9-1.9,1.9-1.9,1.1,0,1.9.9,1.9,1.9,0,31.9,16.1,57.9,35.9,57.9,1.1,0,1.9.9,1.9,1.9v6.7c0,1.1-.9,1.9-1.9,1.9Z"/><path class="cls-7" d="m227.52,169.63c-10.1,0-16.7-5.3-17.8-10.3-.2-1,.4-2,1.5-2.3,1-.2,2,.4,2.3,1.5.8,3.6,6.3,7.3,14.1,7.3s14.4-8,14.5-8.1c.7-.8,1.9-.9,2.7-.3.8.7.9,1.9.3,2.7-.4.4-7.9,9.5-17.6,9.5Z"/><path class="cls-7" d="m246.22,169.73c-.6,0-1.1-.2-1.5-.7l-3.7-4.5c-.7-.8-.5-2,.3-2.7s2-.5,2.7.3l3.7,4.5c.7.8.5,2-.3,2.7-.4.3-.8.4-1.2.4Z"/><path class="cls-7" d="m240.82,174.13c-.8,0-1.5-.5-1.8-1.2l-2.6-6.6c-.4-1,.1-2.1,1.1-2.5s2.1.1,2.5,1.1l2.6,6.6c.4,1-.1,2.1-1.1,2.5-.2.1-.5.1-.7.1Z"/><path class="cls-7" d="m234.32,176.03c-.9,0-1.7-.6-1.9-1.5l-1.3-6.9c-.2-1,.5-2,1.5-2.2s2,.5,2.2,1.5l1.3,6.9c.2,1-.5,2-1.5,2.2h-.3Z"/><path class="cls-7" d="m227.52,177.13c-1.1,0-1.9-.9-1.9-1.9v-7.5c0-1.1.9-1.9,1.9-1.9,1.1,0,1.9.9,1.9,1.9v7.5c.1,1.1-.8,1.9-1.9,1.9Z"/><path class="cls-7" d="m220.82,176.03h-.4c-1-.2-1.7-1.2-1.5-2.2l1.3-6.9c.2-1,1.2-1.7,2.2-1.5s1.7,1.2,1.5,2.2l-1.3,6.9c-.1.8-.9,1.5-1.8,1.5Z"/><path class="cls-7" d="m214.32,174.13c-.2,0-.5,0-.7-.1-1-.4-1.5-1.5-1.1-2.5l2.6-6.6c.4-1,1.5-1.5,2.5-1.1s1.5,1.5,1.1,2.5l-2.6,6.6c-.3.8-1,1.2-1.8,1.2Z"/><path class="cls-7" d="m208.92,169.73c-.4,0-.9-.1-1.2-.4-.8-.7-.9-1.9-.3-2.7l3.7-4.5c.7-.8,1.9-.9,2.7-.3.8.7.9,1.9.3,2.7l-3.7,4.5c-.4.5-.9.7-1.5.7Z"/><path class="cls-7" d="m151.72,169.63c-9.6,0-17.1-9.1-17.4-9.5-.7-.8-.5-2,.3-2.7s2-.5,2.7.3c.1.1,6.7,8.1,14.5,8.1s13.3-3.7,14.1-7.3c.2-1,1.2-1.7,2.3-1.5,1,.2,1.7,1.2,1.5,2.3-1.3,5-7.9,10.3-18,10.3Z"/><path class="cls-7" d="m170.32,169.73c-.6,0-1.1-.2-1.5-.7l-3.7-4.5c-.7-.8-.5-2,.3-2.7s2-.5,2.7.3l3.7,4.5c.7.8.5,2-.3,2.7-.3.3-.7.4-1.2.4Z"/><path class="cls-7" d="m164.92,174.13c-.8,0-1.5-.5-1.8-1.2l-2.6-6.6c-.4-1,.1-2.1,1.1-2.5s2.1.1,2.5,1.1l2.6,6.6c.4,1-.1,2.1-1.1,2.5-.2.1-.4.1-.7.1Z"/><path class="cls-7" d="m158.42,176.03c-.9,0-1.7-.6-1.9-1.5l-1.3-6.9c-.2-1,.5-2,1.5-2.2s2,.5,2.2,1.5l1.3,6.9c.2,1-.5,2-1.5,2.2h-.3Z"/><path class="cls-7" d="m151.72,177.13c-1.1,0-1.9-.9-1.9-1.9v-7.5c0-1.1.9-1.9,1.9-1.9,1.1,0,1.9.9,1.9,1.9v7.5c0,1.1-.8,1.9-1.9,1.9Z"/><path class="cls-7" d="m145.02,176.03h-.4c-1-.2-1.7-1.2-1.5-2.2l1.3-6.9c.2-1,1.2-1.7,2.2-1.5s1.7,1.2,1.5,2.2l-1.3,6.9c-.1.8-.9,1.5-1.8,1.5Z"/><path class="cls-7" d="m138.52,174.13c-.2,0-.5,0-.7-.1-1-.4-1.5-1.5-1.1-2.5l2.6-6.6c.4-1,1.5-1.5,2.5-1.1s1.5,1.5,1.1,2.5l-2.6,6.6c-.4.8-1.1,1.2-1.8,1.2Z"/><path class="cls-7" d="m133.12,169.73c-.4,0-.9-.1-1.2-.4-.8-.7-.9-1.9-.3-2.7l3.7-4.5c.7-.8,1.9-.9,2.7-.3.8.7.9,1.9.3,2.7l-3.7,4.5c-.4.5-1,.7-1.5.7Z"/></g></svg>